<?xml version="1.0" encoding="UTF-8" standalone="no"?>
<!-- Created with Inkscape (http://www.inkscape.org/) -->

<svg
   width="1073.769"
   height="897.22217"
   viewBox="0 0 284.10139 237.39003"
   version="1.1"
   id="svg1"
   xml:space="preserve"
   inkscape:export-filename="ocf simple.svg"
   inkscape:export-xdpi="96"
   inkscape:export-ydpi="96"
   inkscape:version="1.4.3 (0d15f75, 2025-12-25)"
   sodipodi:docname="logo simple.svg"
   xmlns:inkscape="http://www.inkscape.org/namespaces/inkscape"
   xmlns:sodipodi="http://sodipodi.sourceforge.net/DTD/sodipodi-0.dtd"
   xmlns="http://www.w3.org/2000/svg"
   xmlns:svg="http://www.w3.org/2000/svg"><sodipodi:namedview
     id="namedview1"
     pagecolor="#ffffff"
     bordercolor="#666666"
     borderopacity="1.0"
     inkscape:showpageshadow="2"
     inkscape:pageopacity="0.0"
     inkscape:pagecheckerboard="0"
     inkscape:deskcolor="#d1d1d1"
     inkscape:document-units="mm"
     inkscape:export-bgcolor="#ffffff00"
     inkscape:zoom="0.25656251"
     inkscape:cx="-508.64798"
     inkscape:cy="590.49938"
     inkscape:window-width="1920"
     inkscape:window-height="1017"
     inkscape:window-x="-8"
     inkscape:window-y="-8"
     inkscape:window-maximized="1"
     inkscape:current-layer="layer1"><inkscape:page
       x="0"
       y="0"
       width="284.10138"
       height="237.39003"
       id="page2"
       margin="0"
       bleed="0" /></sodipodi:namedview><defs
     id="defs1" /><g
     inkscape:label="Calque 1"
     inkscape:groupmode="layer"
     id="layer1"
     transform="translate(-1101.319,219.45036)"><path
       id="rect1"
       style="fill:#ffffff;stroke-width:0.699791;stroke-linecap:round;stroke-miterlimit:0"
       d="m 1163.5332,-219.23778 -46.3656,186.954271 33.0135,5e-6 46.3656,-186.954286 z" /><path
       style="fill:#ca2e2f;fill-opacity:1;stroke:none;stroke-width:0.435253"
       d="m 1351.7933,-212.3104 -4.5743,14.85571 -1.2234,3.80031 -0.6512,2.53352 c -1.0002,0.71785 -0.4737,3.2335 -1.6289,3.73081 -1.6593,0.71437 -4.2157,-0.34119 -5.9717,-0.26399 -6.5116,0.28628 -12.9744,-0.12719 -19.4622,-0.12719 0.1823,1.4523 3.0922,2.70177 4.193,3.60756 3.8214,3.14474 8.2778,5.56142 12.2082,8.57165 1.03,0.78889 2.1546,1.41339 3.1427,2.26393 0.3357,0.28898 0.8294,0.43363 1.0003,0.87819 0.2189,0.56981 -0.1748,1.30242 -0.3534,1.83759 -0.476,1.42582 -0.9966,2.83814 -1.4832,4.26094 -1.481,4.33198 -2.9314,8.67398 -4.3886,13.01315 -0.5409,1.61048 -1.9196,3.81641 -1.7664,5.5277 1.7323,-0.70403 3.4279,-2.43559 4.919,-3.55966 3.3058,-2.49237 6.6723,-4.88503 9.9366,-7.42164 1.2519,-0.9728 2.5623,-1.8758 3.8004,-2.86569 0.579,-0.463 1.4206,-1.34975 2.1982,-1.43321 0.7063,-0.0758 1.2188,0.55904 1.7172,0.94795 1.117,0.87169 2.2816,1.71174 3.4745,2.47382 1.7642,1.12718 3.3843,2.58034 5.0474,3.86046 3.4765,2.6757 7.0368,5.30652 10.5947,7.88281 0.4244,-1.4919 -1.1114,-3.8668 -1.566,-5.31693 -1.4376,-4.58629 -2.9909,-9.11843 -4.481,-13.68457 -0.3596,-1.10211 -0.685,-2.2897 -1.1826,-3.33681 -0.3096,-0.65149 -0.8257,-1.55601 -0.5319,-2.29939 0.1743,-0.44076 0.9408,-0.89118 1.3293,-1.15826 l 3.2073,-2.18852 c 4.0249,-2.74728 8.1753,-5.37978 11.9874,-8.42597 1.113,-0.88935 3.7869,-1.97376 4.1356,-3.4351 -6.2206,0 -12.4191,0.11519 -18.656,0.11519 -1.6975,0 -3.374,0.23033 -5.0672,0.23033 -0.517,0 -1.3472,0.15538 -1.8075,-0.11843 -0.6581,-0.39156 -0.6239,-1.31549 -0.8098,-1.95452 -0.5198,-1.7872 -2.0037,-4.3605 -1.7588,-6.21867 -0.8558,-0.89543 -0.8717,-2.55935 -1.3101,-3.68515 -1.2532,-3.21718 -2.0075,-6.63618 -3.105,-9.90381 -0.3252,-0.96837 -0.4046,-2.09366 -0.8822,-2.99416 z"
       id="path3-8" /><path
       style="fill:#2c4e8e;fill-opacity:1;stroke:none;stroke-width:0.43128"
       d="m 1101.319,-32.207556 h 17.3893 4.3761 c 0.3961,0 1.1907,0.148573 1.481,-0.181307 0.7412,-0.842383 0.8251,-3.038709 1.0957,-4.115281 0.8983,-3.574231 1.8414,-7.147714 2.6544,-10.741462 2.7547,-12.177762 5.9326,-24.296556 8.9768,-36.40792 7.56,-30.078064 15.0059,-60.196154 22.2846,-90.341394 3.6484,-15.10935 7.9871,-30.13354 11.184,-45.34029 h -17.3893 -4.3761 l -1.481,0.18131 -0.4105,1.40164 -0.7572,3.05285 -2.519,10.17612 -9.4443,38.33008 -22.3412,90.567517 -10.7233,43.418137"
       id="path2-2" /><path
       style="fill:#ca2e2f;fill-opacity:1;stroke:none;stroke-width:0.42745"
       d="m 1194.5797,-219.45037 -10.0787,41.6196 -21.9147,90.477384 -8.8768,36.643342 -2.8273,11.648963 -1.5412,6.785803 153.5855,-1.017869 2.111,6.446514 4.6746,13.910891 6.5207,19.79193 3.6581,11.083476 c 5.0986,-1.208222 10.1601,-3.672213 15.0419,-5.563109 6.0765,-2.353738 12.4208,-4.4566035 18.3216,-7.2168207 -0.4702,-2.0332251 -1.3711,-4.0288445 -2.0705,-5.99412559 -1.3272,-3.72945631 -2.6312,-7.46717161 -3.9584,-11.19656971 -4.1727,-11.725196 -8.2813,-23.478041 -12.2173,-35.286181 -1.4775,-4.432417 -2.9441,-8.872129 -4.2918,-13.345415 -0.3631,-1.205325 -0.7351,-2.409433 -1.0832,-3.619089 -0.1079,-0.37577 -0.1944,-1.111198 -0.532,-1.353592 -0.4704,-0.337589 -1.7576,0.0689 -2.3114,0.106734 -2.3769,0.162313 -4.746,0.56134 -7.1251,0.677008 -9.2385,0.449129 -18.4215,1.537603 -27.7087,1.130876 -10.1779,-0.445713 -20.1657,-2.224047 -29.4052,-6.697495 -9.7873,-4.738794 -17.9486,-12.264666 -25.5598,-19.875779 l 26.0122,-12.179536 13.6847,-6.39312 6.4466,-3.02883 c 1.1462,2.423 2.859,4.70072 4.2294,7.01201 2.3822,4.0178 4.6246,8.150942 6.7131,12.327531 0.9278,1.855808 1.8995,3.686095 2.8274,5.541754 0.2636,0.527399 0.5984,1.717039 1.1178,2.026396 0.4408,0.262526 1.4659,-0.500475 1.8506,-0.717248 1.6786,-0.946187 3.3852,-1.854877 5.0893,-2.754637 6.2414,-3.295334 12.4059,-6.773869 18.5479,-10.251487 1.4714,-0.833154 2.9437,-1.664499 4.4108,-2.505559 0.3811,-0.21849 1.3974,-0.57269 1.4429,-1.0774 0.054,-0.5924 -0.7256,-1.52049 -1.0064,-2.02388 -0.9258,-1.65967 -1.8776,-3.30672 -2.7855,-4.97625 -3.5623,-6.55066 -7.2595,-13.03005 -10.8488,-19.56573 -4.8971,-8.9167 -9.7412,-17.86115 -14.5892,-26.80394 -1.5189,-2.80195 -3.0532,-5.59526 -4.6238,-8.36914 -0.5945,-1.04989 -1.1819,-2.78479 -2.1209,-3.55532 -0.5095,-0.41804 -1.4813,-0.49419 -2.1117,-0.62926 -1.4347,-0.30743 -2.8789,-0.66166 -4.2977,-1.03533 -3.8092,-1.00331 -6.9449,-2.42688 -10.1787,-4.70102 -3.305,-2.32419 -6.183,-5.34459 -8.9245,-8.28765 -0.7566,-0.81219 -1.4974,-1.64888 -2.224,-2.48812 -0.2703,-0.31212 -0.636,-0.90528 -1.0852,-0.95818 -1.128,-0.13286 -3.0235,1.30512 -4.0521,1.74984 -3.9879,1.7241 -7.7551,3.98647 -11.7621,5.65484 2.0531,4.93161 4.8906,9.66903 7.4294,14.3633 3.7698,6.97018 7.3492,14.07749 11.3446,20.92288 -11.7024,4.872 -23.0859,10.69196 -34.6076,15.98157 -3.5667,1.63745 -7.0849,3.52161 -10.7442,4.94133 -1.4964,-6.21258 -1.4218,-13.25263 -0.8109,-19.56573 1.5127,-15.63138 7.2897,-31.10124 17.4857,-43.20295 6.4521,-7.65786 14.689,-13.98767 23.4745,-18.73916 14.1057,-7.62881 30.1876,-10.10051 46.0304,-10.10051 v -5.76794 h -113.7753"
       id="path1-4" /></g></svg>
